<?xml version="1.0" encoding="UTF-8"?>
<!DOCTYPE svg PUBLIC "-//W3C//DTD SVG 1.1//EN" "http://www.w3.org/Graphics/SVG/1.1/DTD/svg11.dtd">
<!-- Creator: CorelDRAW 2020 (64-Bit) -->
<svg xmlns="http://www.w3.org/2000/svg" xml:space="preserve" width="1.39304in" height="2.78666in" version="1.1" style="shape-rendering:geometricPrecision; text-rendering:geometricPrecision; image-rendering:optimizeQuality; fill-rule:evenodd; clip-rule:evenodd"
viewBox="0 0 7498.2 14999.54"
 xmlns:xlink="http://www.w3.org/1999/xlink"
 xmlns:xodm="http://www.corel.com/coreldraw/odm/2003">
 <defs>
  <style type="text/css">
   <![CDATA[
    .fil6 {fill:#2C5282;fill-rule:nonzero}
    .fil1 {fill:url(#id0)}
    .fil2 {fill:url(#id1)}
    .fil3 {fill:url(#id2)}
    .fil4 {fill:url(#id3)}
    .fil0 {fill:url(#id4)}
    .fil5 {fill:url(#id5);fill-rule:nonzero}
   ]]>
  </style>
  <linearGradient id="id0" gradientUnits="userSpaceOnUse" x1="2521.43" y1="985.72" x2="6161.15" y2="8566.33">
   <stop offset="0" style="stop-opacity:1; stop-color:#C8D11F"/>
   <stop offset="1" style="stop-opacity:1; stop-color:#2C5282"/>
  </linearGradient>
  <linearGradient id="id1" gradientUnits="userSpaceOnUse" xlink:href="#id0" x1="4121.32" y1="1793.95" x2="6838.53" y2="7453.2">
  </linearGradient>
  <linearGradient id="id2" gradientUnits="userSpaceOnUse" xlink:href="#id0" x1="4303.93" y1="7969.04" x2="2458.33" y2="12064.13">
  </linearGradient>
  <linearGradient id="id3" gradientUnits="userSpaceOnUse" xlink:href="#id0" x1="3622.28" y1="6610.03" x2="925.22" y2="12594.37">
  </linearGradient>
  <linearGradient id="id4" gradientUnits="userSpaceOnUse" xlink:href="#id0" x1="791.39" y1="-75.76" x2="5587.28" y2="9912.84">
  </linearGradient>
  <linearGradient id="id5" gradientUnits="userSpaceOnUse" xlink:href="#id0" x1="4916.05" y1="9316.58" x2="4349.03" y2="10574.69">
  </linearGradient>
 </defs>
 <g id="Layer_x0020_1">
  <metadata id="CorelCorpID_0Corel-Layer"/>
  <path class="fil0" d="M512.58 58.11l0.02 0c402.85,-193.44 960.56,119.27 1191.64,596.35l3729.88 7700.75c228.82,472.44 102.33,1582.05 -300.52,1775.46 0,0 0,0 0,0 -72.07,-551.17 -187.31,-843.5 -313.55,-1179.28l-4307.47 -8893.28z"/>
  <path class="fil1" d="M2246.74 1117.61l0.02 0c402.85,-193.44 905.57,5.72 1080.95,367.8l2830.69 5844.3c173.66,358.56 -52.19,1263.01 -455.02,1456.42 0,0 0,0 0,0 -16.59,-436.61 -98.9,-660.94 -187.59,-919.18l-3269.05 -6749.34z"/>
  <path class="fil2" d="M3849.91 1924.27l0.02 0c402.85,-193.44 861.71,-84.87 992.63,185.45l2113.23 4363.02c129.65,267.67 -175.49,1008.44 -578.34,1201.85 0,0 0,0 0,0 27.7,-345.19 -28.31,-515.27 -87.05,-711.65l-2440.49 -5038.66z"/>
  <path class="fil3" d="M3920.63 7796.28l-1846.58 4094.65 0 0c404.69,182.39 1143.87,-486.3 1262.58,-749.73l1064.32 -2361.53 -480.32 -983.39z"/>
  <path class="fil4" d="M3238.98 6437.28l-2698.05 5983.91 0 0c404.69,182.39 1317,-870.5 1490.5,-1255.44l1683.89 -3736.28 -476.34 -992.18z"/>
  <path class="fil5" d="M4598.71 9173.56c163.81,331.16 297.49,776.96 293.37,1043.36 -164.7,118.5 -550.98,276.46 -858.93,215.41l565.56 -1258.77z"/>
  <path class="fil6" d="M75.53 14538.57c-20.66,0 -38.4,-7.1 -53.25,-21.3 -14.86,-14.22 -22.27,-32.3 -22.27,-54.25l0 -1361.59c0,-20.66 7.42,-38.42 22.27,-53.28 14.86,-14.83 32.59,-22.27 53.25,-22.27 20.66,0 38.42,7.44 53.28,22.27 14.83,14.86 22.27,32.61 22.27,53.28l0 1293.82 757.3 0c20.66,0 38.42,6.76 53.28,20.32 14.86,13.56 22.27,30.66 22.27,51.33 0,20.66 -7.42,37.78 -22.27,51.33 -14.86,13.56 -32.61,20.34 -53.28,20.34l-832.84 0z"/>
  <path id="1" class="fil6" d="M1492.45 14999.54c-10.32,0 -21.95,-2.59 -34.86,-7.76 -43.91,-19.37 -56.16,-50.35 -36.79,-92.97l625.59 -1379.03c19.37,-41.32 50.35,-52.96 92.97,-34.88 43.91,18.1 56.18,48.42 36.81,91.04l-627.54 1379.05c-12.93,29.69 -31.64,44.54 -56.18,44.54zm214.99 -493.91c-19.37,9.05 -37.45,10.66 -54.23,4.85 -16.78,-5.81 -30.35,-18.42 -40.67,-37.78l-431.92 -894.81c-9.03,-19.37 -10.32,-37.45 -3.88,-54.25 6.46,-16.78 19.37,-29.69 38.74,-38.74 19.37,-9.03 37.45,-10.64 54.23,-4.83 16.8,5.81 29.71,18.39 38.74,37.76l424.19 894.83c10.32,19.37 13.54,37.45 9.68,54.23 -3.88,16.78 -15.51,29.71 -34.88,38.74z"/>
  <path id="2" class="fil6" d="M2890 14538.57c-68.43,0 -129.44,-16.15 -183.03,-48.42 -53.59,-32.27 -95.87,-76.5 -126.87,-132.68 -30.98,-56.16 -46.47,-120.41 -46.47,-192.71l0 -947.11c0,-21.95 6.78,-40.03 20.32,-54.25 13.56,-14.2 31.32,-21.3 53.28,-21.3 21.95,0 40.03,7.1 54.23,21.3 14.2,14.22 21.3,32.3 21.3,54.25l0 947.11c0,65.86 19.37,119.77 58.11,161.73 38.74,41.96 88.45,62.94 149.15,62.94l52.3 0c20.66,0 37.45,7.1 50.35,21.32 12.91,14.2 19.37,32.27 19.37,54.23 0,21.95 -7.76,39.71 -23.25,53.25 -15.49,13.56 -34.86,20.34 -58.11,20.34l-40.67 0zm-482.27 -890.95c-19.37,0 -35.52,-6.15 -48.42,-18.39 -12.91,-12.27 -19.37,-27.44 -19.37,-45.52 0,-19.37 6.46,-35.2 19.37,-47.45 12.91,-12.27 29.05,-18.42 48.42,-18.42l493.89 0c19.37,0 35.52,6.15 48.42,18.42 12.93,12.25 19.37,28.08 19.37,47.45 0,18.08 -6.44,33.25 -19.37,45.52 -12.91,12.25 -29.05,18.39 -48.42,18.39l-493.89 0z"/>
  <path id="3" class="fil6" d="M3489.57 14538.57c-19.37,0 -36.15,-6.78 -50.35,-20.34 -14.22,-13.54 -21.32,-31.96 -21.32,-55.2l0 -981.97c0,-90.4 15.49,-169.81 46.49,-238.23 30.98,-68.45 76.82,-121.7 137.51,-159.8 60.69,-38.08 134.93,-57.13 222.74,-57.13 21.95,0 40.03,6.46 54.23,19.37 14.2,12.91 21.3,29.05 21.3,48.42 0,19.37 -7.1,35.52 -21.3,48.42 -14.2,12.91 -32.27,19.37 -54.23,19.37 -58.11,0 -106.21,13.24 -144.29,39.71 -38.1,26.47 -66.5,63.26 -85.23,110.39 -18.71,47.13 -28.08,101.04 -28.08,161.73l0 989.72c0,23.25 -6.78,41.66 -20.34,55.2 -13.56,13.56 -32.59,20.34 -57.13,20.34zm-195.62 -890.95c-20.66,0 -37.13,-6.15 -49.4,-18.39 -12.27,-12.27 -18.39,-27.44 -18.39,-45.52 0,-19.37 6.12,-35.2 18.39,-47.45 12.27,-12.27 28.74,-18.42 49.4,-18.42l505.52 0c20.64,0 37.11,6.15 49.38,18.42 12.27,12.25 18.39,28.08 18.39,47.45 0,18.08 -6.12,33.25 -18.39,45.52 -12.27,12.25 -28.74,18.39 -49.38,18.39l-505.52 0z"/>
  <path id="4" class="fil6" d="M4614.03 14548.25c-103.31,0 -195.62,-23.25 -276.97,-69.72 -81.35,-46.49 -145.27,-110.41 -191.74,-191.76 -46.49,-81.33 -69.74,-173.66 -69.74,-276.97 0,-104.58 23.25,-197.55 69.74,-278.9 46.47,-81.35 110.39,-145.27 191.74,-191.74 81.35,-46.49 173.66,-69.74 276.97,-69.74 103.29,0 195.3,23.25 276,69.74 80.7,46.47 144.29,110.39 190.79,191.74 46.47,81.35 70.38,174.32 71.67,278.9 0,103.31 -23.56,195.64 -70.69,276.97 -47.13,81.35 -111.06,145.27 -191.76,191.76 -80.7,46.47 -172.71,69.72 -276,69.72zm0 -135.58c74.89,0 142.02,-17.42 201.42,-52.3 59.4,-34.86 105.89,-82.63 139.46,-143.32 33.57,-60.69 50.35,-129.78 50.35,-207.25 0,-77.48 -16.78,-146.88 -50.35,-208.21 -33.57,-61.33 -80.06,-109.43 -139.46,-144.29 -59.4,-34.86 -126.53,-52.3 -201.42,-52.3 -74.89,0 -142.05,17.44 -201.42,52.3 -59.4,34.86 -106.21,82.96 -140.44,144.29 -34.22,61.33 -51.33,130.73 -51.33,208.21 0,77.48 17.1,146.56 51.33,207.25 34.22,60.69 81.04,108.46 140.44,143.32 59.38,34.88 126.53,52.3 201.42,52.3z"/>
  <path id="5" class="fil6" d="M6029 14548.25c-103.31,0 -195.62,-23.25 -276.97,-69.72 -81.35,-46.49 -145.27,-110.41 -191.74,-191.76 -46.49,-81.33 -69.74,-173.66 -69.74,-276.97 0,-104.58 23.25,-197.55 69.74,-278.9 46.47,-81.35 110.39,-145.27 191.74,-191.74 81.35,-46.49 173.66,-69.74 276.97,-69.74 103.29,0 195.3,23.25 276,69.74 80.7,46.47 144.29,110.39 190.79,191.74 46.47,81.35 70.38,174.32 71.67,278.9 0,103.31 -23.56,195.64 -70.69,276.97 -47.13,81.35 -111.06,145.27 -191.76,191.76 -80.7,46.47 -172.71,69.72 -276,69.72zm0 -135.58c74.89,0 142.02,-17.42 201.42,-52.3 59.4,-34.86 105.89,-82.63 139.46,-143.32 33.57,-60.69 50.35,-129.78 50.35,-207.25 0,-77.48 -16.78,-146.88 -50.35,-208.21 -33.57,-61.33 -80.06,-109.43 -139.46,-144.29 -59.4,-34.86 -126.53,-52.3 -201.42,-52.3 -74.89,0 -142.05,17.44 -201.42,52.3 -59.4,34.86 -106.21,82.96 -140.44,144.29 -34.22,61.33 -51.33,130.73 -51.33,208.21 0,77.48 17.1,146.56 51.33,207.25 34.22,60.69 81.04,108.46 140.44,143.32 59.38,34.88 126.53,52.3 201.42,52.3z"/>
  <path id="6" class="fil6" d="M7376.18 14538.57c-68.43,0 -129.44,-16.15 -183.03,-48.42 -53.59,-32.27 -95.87,-76.5 -126.87,-132.68 -30.98,-56.16 -46.47,-120.41 -46.47,-192.71l0 -947.11c0,-21.95 6.78,-40.03 20.32,-54.25 13.56,-14.2 31.32,-21.3 53.28,-21.3 21.95,0 40.03,7.1 54.23,21.3 14.2,14.22 21.3,32.3 21.3,54.25l0 947.11c0,65.86 19.37,119.77 58.11,161.73 38.74,41.96 88.45,62.94 149.15,62.94l52.3 0c20.66,0 37.45,7.1 50.35,21.32 12.91,14.2 19.37,32.27 19.37,54.23 0,21.95 -7.76,39.71 -23.25,53.25 -15.49,13.56 -34.86,20.34 -58.11,20.34l-40.67 0zm-482.27 -890.95c-19.37,0 -35.52,-6.15 -48.42,-18.39 -12.91,-12.27 -19.37,-27.44 -19.37,-45.52 0,-19.37 6.46,-35.2 19.37,-47.45 12.91,-12.27 29.05,-18.42 48.42,-18.42l493.89 0c19.37,0 35.52,6.15 48.42,18.42 12.93,12.25 19.37,28.08 19.37,47.45 0,18.08 -6.44,33.25 -19.37,45.52 -12.91,12.25 -29.05,18.39 -48.42,18.39l-493.89 0z"/>
 </g>
</svg>
